<mxfile host="app.diagrams.net" modified="2020-07-05T13:01:23.516Z" agent="5.0 (Windows NT 10.0; Win64; x64) AppleWebKit/537.36 (KHTML, like Gecko) Chrome/83.0.4103.116 Safari/537.36" etag="GoPpMLSCKQdnCmmg36Ds" version="13.3.9" type="github">
  <diagram name="Page-1" id="c4acf3e9-155e-7222-9cf6-157b1a14988f">
    <mxGraphModel dx="1422" dy="832" grid="1" gridSize="10" guides="1" tooltips="1" connect="1" arrows="1" fold="1" page="1" pageScale="1" pageWidth="850" pageHeight="1100" background="#ffffff" math="0" shadow="0">
      <root>
        <mxCell id="0" />
        <mxCell id="1" parent="0" />
        <mxCell id="InRA8orGRtgqqkutnVT8-16" value="0..*" style="text;html=1;strokeColor=none;fillColor=none;align=center;verticalAlign=middle;whiteSpace=wrap;rounded=0;" vertex="1" parent="1">
          <mxGeometry x="30" y="80" width="40" height="20" as="geometry" />
        </mxCell>
        <mxCell id="InRA8orGRtgqqkutnVT8-17" value="0...*" style="text;html=1;strokeColor=none;fillColor=none;align=center;verticalAlign=middle;whiteSpace=wrap;rounded=0;" vertex="1" parent="1">
          <mxGeometry x="20" y="20" width="40" height="20" as="geometry" />
        </mxCell>
        <mxCell id="InRA8orGRtgqqkutnVT8-1" value="Aktivität" style="swimlane;fontStyle=1;align=center;verticalAlign=top;childLayout=stackLayout;horizontal=1;startSize=26;horizontalStack=0;resizeParent=1;resizeParentMax=0;resizeLast=0;collapsible=1;marginBottom=0;" vertex="1" parent="1">
          <mxGeometry x="70" y="20" width="160" height="90" as="geometry" />
        </mxCell>
        <mxCell id="InRA8orGRtgqqkutnVT8-2" value="- Aktivitiätsnr : int&#xa;- Kosten : double&#xa;- Unternehmenid : int&#xa;- Alternativ : Aktivität" style="text;strokeColor=none;fillColor=none;align=left;verticalAlign=top;spacingLeft=4;spacingRight=4;overflow=hidden;rotatable=0;points=[[0,0.5],[1,0.5]];portConstraint=eastwest;" vertex="1" parent="InRA8orGRtgqqkutnVT8-1">
          <mxGeometry y="26" width="160" height="64" as="geometry" />
        </mxCell>
        <mxCell id="InRA8orGRtgqqkutnVT8-15" value="" style="endArrow=classic;html=1;exitX=0;exitY=0.5;exitDx=0;exitDy=0;entryX=0;entryY=0.25;entryDx=0;entryDy=0;" edge="1" parent="InRA8orGRtgqqkutnVT8-1" source="InRA8orGRtgqqkutnVT8-2" target="InRA8orGRtgqqkutnVT8-1">
          <mxGeometry width="50" height="50" relative="1" as="geometry">
            <mxPoint x="330" y="190" as="sourcePoint" />
            <mxPoint x="-70" y="58" as="targetPoint" />
            <Array as="points">
              <mxPoint x="-60" y="58" />
              <mxPoint x="-60" y="23" />
            </Array>
          </mxGeometry>
        </mxCell>
        <mxCell id="InRA8orGRtgqqkutnVT8-18" value="" style="endArrow=openThin;html=1;exitX=0.994;exitY=0.391;exitDx=0;exitDy=0;exitPerimeter=0;entryX=-0.006;entryY=0.187;entryDx=0;entryDy=0;entryPerimeter=0;rounded=0;endFill=0;startArrow=openThin;startFill=0;" edge="1" parent="1" source="InRA8orGRtgqqkutnVT8-2" target="InRA8orGRtgqqkutnVT8-9">
          <mxGeometry width="50" height="50" relative="1" as="geometry">
            <mxPoint x="400" y="250" as="sourcePoint" />
            <mxPoint x="450" y="200" as="targetPoint" />
          </mxGeometry>
        </mxCell>
        <mxCell id="InRA8orGRtgqqkutnVT8-19" value="0...*" style="text;html=1;strokeColor=none;fillColor=none;align=center;verticalAlign=middle;whiteSpace=wrap;rounded=0;" vertex="1" parent="1">
          <mxGeometry x="230" y="50" width="40" height="20" as="geometry" />
        </mxCell>
        <mxCell id="InRA8orGRtgqqkutnVT8-20" value="0...*" style="text;html=1;strokeColor=none;fillColor=none;align=center;verticalAlign=middle;whiteSpace=wrap;rounded=0;" vertex="1" parent="1">
          <mxGeometry x="270" y="50" width="40" height="20" as="geometry" />
        </mxCell>
        <mxCell id="InRA8orGRtgqqkutnVT8-8" value="Reise" style="swimlane;fontStyle=1;align=center;verticalAlign=top;childLayout=stackLayout;horizontal=1;startSize=26;horizontalStack=0;resizeParent=1;resizeParentMax=0;resizeLast=0;collapsible=1;marginBottom=0;" vertex="1" parent="1">
          <mxGeometry x="310" y="20" width="160" height="190" as="geometry" />
        </mxCell>
        <mxCell id="InRA8orGRtgqqkutnVT8-9" value="- Reisenr&#xa;- Aktivitäten[]&#xa;- preis double&#xa;- Beschreibung: string&#xa;- Ort: string&#xa;- Region: string&#xa;- Land: string&#xa;- Jahreszeit: string" style="text;strokeColor=none;fillColor=none;align=left;verticalAlign=top;spacingLeft=4;spacingRight=4;overflow=hidden;rotatable=0;points=[[0,0.5],[1,0.5]];portConstraint=eastwest;" vertex="1" parent="InRA8orGRtgqqkutnVT8-8">
          <mxGeometry y="26" width="160" height="124" as="geometry" />
        </mxCell>
        <mxCell id="InRA8orGRtgqqkutnVT8-10" value="" style="line;strokeWidth=1;fillColor=none;align=left;verticalAlign=middle;spacingTop=-1;spacingLeft=3;spacingRight=3;rotatable=0;labelPosition=right;points=[];portConstraint=eastwest;" vertex="1" parent="InRA8orGRtgqqkutnVT8-8">
          <mxGeometry y="150" width="160" height="8" as="geometry" />
        </mxCell>
        <mxCell id="InRA8orGRtgqqkutnVT8-11" value="+ addAktivität() : boolean" style="text;strokeColor=none;fillColor=none;align=left;verticalAlign=top;spacingLeft=4;spacingRight=4;overflow=hidden;rotatable=0;points=[[0,0.5],[1,0.5]];portConstraint=eastwest;" vertex="1" parent="InRA8orGRtgqqkutnVT8-8">
          <mxGeometry y="158" width="160" height="32" as="geometry" />
        </mxCell>
        <mxCell id="InRA8orGRtgqqkutnVT8-26" value="Reiseportal" style="swimlane;fontStyle=1;align=center;verticalAlign=top;childLayout=stackLayout;horizontal=1;startSize=26;horizontalStack=0;resizeParent=1;resizeParentMax=0;resizeLast=0;collapsible=1;marginBottom=0;" vertex="1" parent="1">
          <mxGeometry x="530" y="20" width="180" height="140" as="geometry" />
        </mxCell>
        <mxCell id="InRA8orGRtgqqkutnVT8-27" value="- reisenArray[] : Reise[]&#xa;- UserArray[] : User[]" style="text;strokeColor=none;fillColor=none;align=left;verticalAlign=top;spacingLeft=4;spacingRight=4;overflow=hidden;rotatable=0;points=[[0,0.5],[1,0.5]];portConstraint=eastwest;" vertex="1" parent="InRA8orGRtgqqkutnVT8-26">
          <mxGeometry y="26" width="180" height="44" as="geometry" />
        </mxCell>
        <mxCell id="InRA8orGRtgqqkutnVT8-28" value="" style="line;strokeWidth=1;fillColor=none;align=left;verticalAlign=middle;spacingTop=-1;spacingLeft=3;spacingRight=3;rotatable=0;labelPosition=right;points=[];portConstraint=eastwest;" vertex="1" parent="InRA8orGRtgqqkutnVT8-26">
          <mxGeometry y="70" width="180" height="8" as="geometry" />
        </mxCell>
        <mxCell id="InRA8orGRtgqqkutnVT8-29" value="+ reiseSuchen() : void&#xa;+ reiseFIltern() : void&#xa;+ UserRegistrieren() : boolean" style="text;strokeColor=none;fillColor=none;align=left;verticalAlign=top;spacingLeft=4;spacingRight=4;overflow=hidden;rotatable=0;points=[[0,0.5],[1,0.5]];portConstraint=eastwest;" vertex="1" parent="InRA8orGRtgqqkutnVT8-26">
          <mxGeometry y="78" width="180" height="62" as="geometry" />
        </mxCell>
        <mxCell id="InRA8orGRtgqqkutnVT8-46" value="User" style="swimlane;fontStyle=1;childLayout=stackLayout;horizontal=1;startSize=26;fillColor=none;horizontalStack=0;resizeParent=1;resizeParentMax=0;resizeLast=0;collapsible=1;marginBottom=0;" vertex="1" parent="1">
          <mxGeometry x="600" y="400" width="160" height="110" as="geometry" />
        </mxCell>
        <mxCell id="InRA8orGRtgqqkutnVT8-47" value="+ ReiseBuchen(): boolean" style="text;strokeColor=none;fillColor=none;align=left;verticalAlign=top;spacingLeft=4;spacingRight=4;overflow=hidden;rotatable=0;points=[[0,0.5],[1,0.5]];portConstraint=eastwest;" vertex="1" parent="InRA8orGRtgqqkutnVT8-46">
          <mxGeometry y="26" width="160" height="84" as="geometry" />
        </mxCell>
        <mxCell id="InRA8orGRtgqqkutnVT8-30" value="User&lt;&lt;abstract&gt;&gt;" style="swimlane;fontStyle=1;align=center;verticalAlign=top;childLayout=stackLayout;horizontal=1;startSize=26;horizontalStack=0;resizeParent=1;resizeParentMax=0;resizeLast=0;collapsible=1;marginBottom=0;" vertex="1" parent="1">
          <mxGeometry x="390" y="400" width="160" height="190" as="geometry" />
        </mxCell>
        <mxCell id="InRA8orGRtgqqkutnVT8-31" value="- usernr: int&#xa;- vorname: string&#xa;- nachname: string&#xa;- password : string&#xa;- kontonr:  int&#xa;- geburtsdat: date" style="text;strokeColor=none;fillColor=none;align=left;verticalAlign=top;spacingLeft=4;spacingRight=4;overflow=hidden;rotatable=0;points=[[0,0.5],[1,0.5]];portConstraint=eastwest;" vertex="1" parent="InRA8orGRtgqqkutnVT8-30">
          <mxGeometry y="26" width="160" height="104" as="geometry" />
        </mxCell>
        <mxCell id="InRA8orGRtgqqkutnVT8-32" value="" style="line;strokeWidth=1;fillColor=none;align=left;verticalAlign=middle;spacingTop=-1;spacingLeft=3;spacingRight=3;rotatable=0;labelPosition=right;points=[];portConstraint=eastwest;" vertex="1" parent="InRA8orGRtgqqkutnVT8-30">
          <mxGeometry y="130" width="160" height="8" as="geometry" />
        </mxCell>
        <mxCell id="InRA8orGRtgqqkutnVT8-33" value="+ einloggen(): boolean&#xa;+ ausloggen(): boolean" style="text;strokeColor=none;fillColor=none;align=left;verticalAlign=top;spacingLeft=4;spacingRight=4;overflow=hidden;rotatable=0;points=[[0,0.5],[1,0.5]];portConstraint=eastwest;" vertex="1" parent="InRA8orGRtgqqkutnVT8-30">
          <mxGeometry y="138" width="160" height="52" as="geometry" />
        </mxCell>
        <mxCell id="InRA8orGRtgqqkutnVT8-54" value="" style="endArrow=block;html=1;endFill=0;exitX=0;exitY=0.405;exitDx=0;exitDy=0;exitPerimeter=0;entryX=1;entryY=0.279;entryDx=0;entryDy=0;entryPerimeter=0;" edge="1" parent="1" source="InRA8orGRtgqqkutnVT8-47" target="InRA8orGRtgqqkutnVT8-31">
          <mxGeometry width="50" height="50" relative="1" as="geometry">
            <mxPoint x="330" y="480" as="sourcePoint" />
            <mxPoint x="380" y="430" as="targetPoint" />
          </mxGeometry>
        </mxCell>
        <mxCell id="InRA8orGRtgqqkutnVT8-55" value="" style="endArrow=block;html=1;exitX=-0.017;exitY=0.14;exitDx=0;exitDy=0;endFill=0;entryX=1;entryY=0.5;entryDx=0;entryDy=0;exitPerimeter=0;" edge="1" parent="1" source="InRA8orGRtgqqkutnVT8-43" target="InRA8orGRtgqqkutnVT8-33">
          <mxGeometry width="50" height="50" relative="1" as="geometry">
            <mxPoint x="330" y="518" as="sourcePoint" />
            <mxPoint x="386" y="520" as="targetPoint" />
          </mxGeometry>
        </mxCell>
        <mxCell id="InRA8orGRtgqqkutnVT8-42" value="Admin" style="swimlane;fontStyle=1;childLayout=stackLayout;horizontal=1;startSize=26;fillColor=none;horizontalStack=0;resizeParent=1;resizeParentMax=0;resizeLast=0;collapsible=1;marginBottom=0;" vertex="1" parent="1">
          <mxGeometry x="600" y="530" width="230" height="140" as="geometry" />
        </mxCell>
        <mxCell id="InRA8orGRtgqqkutnVT8-43" value="+ reisenHinzufügen(): boolean&#xa;+ reiseLöschen(): boolean&#xa;+ AktivitätNeuhinzufügen(): boolean&#xa;+ AktivitätLöschen(): boolean&#xa;+ Unternehmenhinzufügen: boolean&#xa;+ Unternehmenlöschen: boolean" style="text;strokeColor=none;fillColor=none;align=left;verticalAlign=top;spacingLeft=4;spacingRight=4;overflow=hidden;rotatable=0;points=[[0,0.5],[1,0.5]];portConstraint=eastwest;" vertex="1" parent="InRA8orGRtgqqkutnVT8-42">
          <mxGeometry y="26" width="230" height="114" as="geometry" />
        </mxCell>
        <mxCell id="InRA8orGRtgqqkutnVT8-60" value="Buchung" style="swimlane;fontStyle=1;childLayout=stackLayout;horizontal=1;startSize=26;fillColor=none;horizontalStack=0;resizeParent=1;resizeParentMax=0;resizeLast=0;collapsible=1;marginBottom=0;" vertex="1" parent="1">
          <mxGeometry x="130" y="400" width="140" height="100" as="geometry" />
        </mxCell>
        <mxCell id="InRA8orGRtgqqkutnVT8-61" value="- buchungid: int&#xa;- von: date&#xa;- bis: date&#xa;- kosten: double" style="text;strokeColor=none;fillColor=none;align=left;verticalAlign=top;spacingLeft=4;spacingRight=4;overflow=hidden;rotatable=0;points=[[0,0.5],[1,0.5]];portConstraint=eastwest;" vertex="1" parent="InRA8orGRtgqqkutnVT8-60">
          <mxGeometry y="26" width="140" height="74" as="geometry" />
        </mxCell>
        <mxCell id="InRA8orGRtgqqkutnVT8-64" value="" style="endArrow=diamondThin;html=1;entryX=0.5;entryY=0.976;entryDx=0;entryDy=0;entryPerimeter=0;exitX=0.5;exitY=0;exitDx=0;exitDy=0;endFill=1;" edge="1" parent="1" source="InRA8orGRtgqqkutnVT8-60" target="InRA8orGRtgqqkutnVT8-11">
          <mxGeometry width="50" height="50" relative="1" as="geometry">
            <mxPoint x="330" y="380" as="sourcePoint" />
            <mxPoint x="380" y="330" as="targetPoint" />
          </mxGeometry>
        </mxCell>
        <mxCell id="InRA8orGRtgqqkutnVT8-65" value="0..*" style="text;html=1;strokeColor=none;fillColor=none;align=center;verticalAlign=middle;whiteSpace=wrap;rounded=0;" vertex="1" parent="1">
          <mxGeometry x="220" y="380" width="40" height="20" as="geometry" />
        </mxCell>
        <mxCell id="InRA8orGRtgqqkutnVT8-66" value="1" style="text;html=1;strokeColor=none;fillColor=none;align=center;verticalAlign=middle;whiteSpace=wrap;rounded=0;" vertex="1" parent="1">
          <mxGeometry x="385" y="210" width="40" height="20" as="geometry" />
        </mxCell>
        <mxCell id="InRA8orGRtgqqkutnVT8-67" value="" style="endArrow=diamondThin;html=1;exitX=0.5;exitY=0;exitDx=0;exitDy=0;endFill=1;" edge="1" parent="1" source="InRA8orGRtgqqkutnVT8-30" target="InRA8orGRtgqqkutnVT8-29">
          <mxGeometry width="50" height="50" relative="1" as="geometry">
            <mxPoint x="210" y="410" as="sourcePoint" />
            <mxPoint x="400" y="219.23199999999997" as="targetPoint" />
          </mxGeometry>
        </mxCell>
        <mxCell id="InRA8orGRtgqqkutnVT8-68" value="1" style="text;html=1;strokeColor=none;fillColor=none;align=center;verticalAlign=middle;whiteSpace=wrap;rounded=0;" vertex="1" parent="1">
          <mxGeometry x="600" y="160" width="40" height="20" as="geometry" />
        </mxCell>
        <mxCell id="InRA8orGRtgqqkutnVT8-70" value="0..*" style="text;html=1;strokeColor=none;fillColor=none;align=center;verticalAlign=middle;whiteSpace=wrap;rounded=0;" vertex="1" parent="1">
          <mxGeometry x="480" y="380" width="40" height="20" as="geometry" />
        </mxCell>
        <mxCell id="InRA8orGRtgqqkutnVT8-71" value="" style="endArrow=diamondThin;html=1;endFill=1;" edge="1" parent="1" source="InRA8orGRtgqqkutnVT8-61" target="InRA8orGRtgqqkutnVT8-31">
          <mxGeometry width="50" height="50" relative="1" as="geometry">
            <mxPoint x="210" y="410" as="sourcePoint" />
            <mxPoint x="400" y="219.23199999999997" as="targetPoint" />
          </mxGeometry>
        </mxCell>
        <mxCell id="InRA8orGRtgqqkutnVT8-72" value="0..*" style="text;html=1;strokeColor=none;fillColor=none;align=center;verticalAlign=middle;whiteSpace=wrap;rounded=0;" vertex="1" parent="1">
          <mxGeometry x="270" y="445" width="40" height="20" as="geometry" />
        </mxCell>
        <mxCell id="InRA8orGRtgqqkutnVT8-74" value="1" style="text;html=1;strokeColor=none;fillColor=none;align=center;verticalAlign=middle;whiteSpace=wrap;rounded=0;" vertex="1" parent="1">
          <mxGeometry x="350" y="445" width="40" height="20" as="geometry" />
        </mxCell>
      </root>
    </mxGraphModel>
  </diagram>
</mxfile>
